# xmcd CD database file
#
# Track frame offsets:
#	150
#	14750
#	33119
#	51859
#	68591
#	89158
#	105390
#	132596
#	150267
#	169123
#	179575
#	202014
#	220935
#	241529
#	254681
#
# Disc length: 3605 seconds
#
# Revision: 0
# Processed by: cddbd v1.5.2PL0 Copyright (c) Steve Scherf et al.
# Submitted via: CDex 1.70beta2
#
DISCID=d10e130f
DTITLE=Steve Azar - Indianola
DYEAR=2006
DGENRE=Country
TTITLE0=Crowded
TTITLE1=You Don't Know A Thing
TTITLE2=You're My Life
TTITLE3=Still Tryin' To Find My Way Around
TTITLE4=Empty Spaces
TTITLE5=What's Wrong With Right Now
TTITLE6=The River's Workin'
TTITLE7=I Won't Let You Lead Me Down
TTITLE8=The Coach
TTITLE9=Prelude
TTITLE10=Flatlands
TTITLE11=Bluestone (Featuring Jason Young)
TTITLE12=Indianola
TTITLE13=Mississippi Minute
TTITLE14=Highway 61
EXTD=YEAR: 2006
EXTT0=
EXTT1=
EXTT2=
EXTT3=
EXTT4=
EXTT5=
EXTT6=
EXTT7=
EXTT8=
EXTT9=
EXTT10=
EXTT11=
EXTT12=
EXTT13=
EXTT14=
PLAYORDER=
